<svg version="1.1" xmlns="http://www.w3.org/2000/svg" xmlns:xlink="http://www.w3.org/1999/xlink" width="24px" height="24px" viewBox="0 0 24 24" fill="#333333" >
<g>
	<polygon points="2.91,4.098 19.89,4.098 19.89,2.202 1.015,2.202 1.015,18.702 2.91,18.702 	"/>
	<path d="M4.11,5.298v16.5h18.875v-16.5H4.11z M12.694,17.194H9.155c-2.01,0-3.646-1.636-3.646-3.646
		s1.636-3.646,3.646-3.646h3.539v1.5H9.155c-1.185,0-2.146,0.961-2.146,2.146s0.961,2.146,2.146,2.146h3.539V17.194z M17.603,12.777
		v1.542H9.493v-1.542H17.603z M17.94,17.194h-3.538v-1.5h3.538c1.185,0,2.146-0.961,2.146-2.146s-0.961-2.146-2.146-2.146h-3.538
		v-1.5h3.538c2.01,0,3.646,1.636,3.646,3.646S19.95,17.194,17.94,17.194z"/>
</g>
</svg>
