<svg version="1.1" xmlns="http://www.w3.org/2000/svg" xmlns:xlink="http://www.w3.org/1999/xlink"
	 width="24px" height="24px" viewBox="0 0 24 24" fill="#333333">
<g>
	<g>
		<path  d="M18.654,7.311h-5.061v2h5.061c1.483,0,2.689,1.207,2.689,2.689s-1.206,2.689-2.689,2.689h-5.061v2h5.061
			c2.586,0,4.689-2.104,4.689-4.689S21.24,7.311,18.654,7.311z"/>
		<path  d="M10.406,14.689H5.346c-1.483,0-2.689-1.207-2.689-2.689s1.206-2.689,2.689-2.689h5.061v-2H5.346
			C2.76,7.311,0.656,9.414,0.656,12s2.104,4.689,4.689,4.689h5.061V14.689z"/>
	</g>
	<rect x="6.719" y="10.948" width="10.563" height="2"/>
</g>
</svg>
