<svg width="24" height="12" viewBox="0 0 24 12" fill="none" xmlns="http://www.w3.org/2000/svg">
<path fill-rule="evenodd" clip-rule="evenodd" d="M6 0C2.68629 0 0 2.68629 0 6C0 9.31371 2.68629 12 6 12H10.947V10.2H5.88415C3.56455 10.2 1.68415 8.31957 1.68415 5.99998C1.68415 3.68038 3.56456 1.79998 5.88415 1.79998H10.947V0H6ZM13.4733 0V1.79998H18.1157C20.4353 1.79998 22.3157 3.68038 22.3157 5.99998C22.3157 8.31957 20.4353 10.2 18.1157 10.2H13.4733V12H18C21.3137 12 24 9.31371 24 6C24 2.68629 21.3137 0 18 0H13.4733Z" fill="white"/>
<rect x="4.21039" y="4" width="16" height="4" rx="2" fill="white"/>
</svg>
