<svg version="1.1" xmlns="http://www.w3.org/2000/svg" xmlns:xlink="http://www.w3.org/1999/xlink" width="24px" height="24px" viewBox="0 0 24 24" fill="#333333">
<g>
	<polygon points="2.91,4.098 19.89,4.098 19.89,2.202 1.015,2.202 1.015,18.702 2.91,18.702 	"/>
	<path d="M4.11,5.298v16.5h18.875v-16.5H4.11z M12.753,16.944H9.456c-1.871,0-3.396-1.523-3.396-3.396
		s1.524-3.396,3.396-3.396h3.297v1.397H9.456c-1.103,0-1.998,0.895-1.998,1.999s0.896,1.999,1.998,1.999h3.297V16.944z
		 M17.324,12.83v1.437H9.771V12.83H17.324z M17.64,16.944h-3.296v-1.397h3.296c1.103,0,1.998-0.895,1.998-1.999
		s-0.896-1.999-1.998-1.999h-3.296v-1.397h3.296c1.871,0,3.396,1.523,3.396,3.396S19.511,16.944,17.64,16.944z"/>
</g>
</svg>
