<?xml version="1.0" encoding="utf-8"?>
<!-- Generator: Adobe Illustrator 16.0.0, SVG Export Plug-In . SVG Version: 6.00 Build 0)  -->
<!DOCTYPE svg PUBLIC "-//W3C//DTD SVG 1.1//EN" "http://www.w3.org/Graphics/SVG/1.1/DTD/svg11.dtd">
<svg version="1.1" id="Layer_1" xmlns="http://www.w3.org/2000/svg" xmlns:xlink="http://www.w3.org/1999/xlink" x="0px" y="0px"
	 viewBox="0 0 200 200" enable-background="new 0 0 200 200" xml:space="preserve">
<g>
	<polygon fill="#FFFFFF" points="100,188.209 23.035,145.523 100,108.936 176.965,145.523 	"/>
	<path d="M100,2.18L9.722,39.589V147.5L100,197.82l90.278-50.322V39.589L100,2.18z M18.218,44.997l77.533-31.453v87.833
		l-77.533,36.865V44.997z M100,188.033l-76.965-42.688L100,108.76l76.965,36.586L100,188.033z M181.781,138.242l-77.533-36.865
		V13.544l77.533,31.453V138.242z"/>
	<polygon fill="#EEEEEE" points="18.218,44.997 95.751,13.544 95.751,101.377 18.218,138.242 	"/>
	<polygon fill="#EEEEEE" points="181.781,138.242 104.248,101.377 104.248,13.544 181.781,44.997 	"/>
	<g>
		<polygon fill="#F47522" points="43.042,104.023 58.14,88.927 80.048,110.833 145.198,45.685 160.297,60.782 80.048,141.03 		"/>
		<path d="M145.198,51.341l9.441,9.44l-74.592,74.591l-31.349-31.35l9.441-9.44l21.908,21.907L145.198,51.341 M145.198,40.028
			l-5.657,5.657l-59.493,59.492l-16.251-16.25l-5.656-5.656l-5.657,5.656l-9.441,9.44l-5.658,5.657l5.657,5.657l31.349,31.35
			l5.657,5.656l5.657-5.656l74.592-74.592l5.657-5.657l-5.658-5.657l-9.441-9.44L145.198,40.028L145.198,40.028z"/>
	</g>

		<radialGradient id="SVGID_1_" cx="100.6807" cy="142.3301" r="41.1761" gradientTransform="matrix(1.0978 0 0 0.269 -9.6924 110.4227)" gradientUnits="userSpaceOnUse">
		<stop  offset="0" style="stop-color:#000000;stop-opacity:0.4"/>
		<stop  offset="1" style="stop-color:#000000;stop-opacity:0"/>
	</radialGradient>
	<path opacity="0.6" fill="url(#SVGID_1_)" d="M163.878,147.473c0,15.012-28.226,27.189-63.043,27.189
		c-34.818,0-63.043-12.178-63.043-27.189c0-12.023,28.226-24.719,63.043-24.719C135.652,122.754,163.878,135.141,163.878,147.473z"
		/>
</g>
</svg>
