<svg width="705" height="419" viewBox="0 0 705 419" fill="none" xmlns="http://www.w3.org/2000/svg">
<polygon points="1,1 1,418 703,418 703,1 474,1 474,203 201,203 201,1" fill="#eee"/>
<g style="mix-blend-mode:multiply">
<rect x="1" y="1" width="200" height="202" fill="#FED7D9"/>
</g>
<g style="mix-blend-mode:multiply">
<rect x="474" y="1" width="172" height="101" fill="#FED7D9"/>
</g>
<g style="mix-blend-mode:multiply">
<rect x="474" y="102" width="172" height="101" fill="#FED7D9"/>
</g>
<g style="mix-blend-mode:multiply">
<rect x="1" y="203 " width="57" height="72" fill="#FFE3AC"/>
</g>
<g style="mix-blend-mode:multiply">
<rect x="59" y="203 " width="57" height="72" fill="#FFE3AC"/>
</g>
<g style="mix-blend-mode:multiply">
<rect x="474" y="202" width="72" height="59" fill="#FFE3AC"/>
</g>
<g style="mix-blend-mode:multiply">
<rect x="547" y="202" width="71" height="59" fill="#FFE3AC"/>
</g>
<g style="mix-blend-mode:multiply">
<rect x="632" y="317" width="71" height="57" fill="#FFE3AC"/>
</g>
<g style="mix-blend-mode:multiply">
<rect x="216" y="274" width="87" height="144" fill="#D8FBCC"/>
</g>
<g style="mix-blend-mode:multiply">
<rect x="201" y="274" width="15" height="29" fill="#CCDFFB"/>
</g>
<g style="mix-blend-mode:multiply">
<rect x="201" y="303" width="15" height="29" fill="#CCDFFB"/>
</g>
<g style="mix-blend-mode:multiply">
<rect x="201" y="332" width="15" height="29" fill="#CCDFFB"/>
</g>
<g style="mix-blend-mode:multiply">
<rect x="201" y="361" width="15" height="29" fill="#CCDFFB"/>
</g>
<g style="mix-blend-mode:multiply">
<rect x="201 " y="390" width="15" height="28" fill="#CCDFFB"/>
</g>
<line x1="1.75" y1="1.75" x2="1.75" y2="417.25" stroke="#333333" stroke-width="1.5" stroke-linecap="square"/>
<line x1="201.5" y1="1.2" x2="1.75" y2="1.2" stroke="#333333" stroke-width="1.5" stroke-linecap="square"/>
<line x1="703.75" y1="1.75" x2="703.75" y2="416.25" stroke="#333333" stroke-width="1.5" stroke-linecap="square"/>
<line x1="201.75" y1="1.75" x2="201.75" y2="201.25" stroke="#333333" stroke-width="1.5" stroke-linecap="square"/>
<line x1="474.75" y1="1.75" x2="474.75" y2="259.25" stroke="#333333" stroke-width="1.5" stroke-linecap="square"/>
<line x1="646.75" y1="88.75" x2="646.75" y2="187.25" stroke="#333333" stroke-width="1.5" stroke-linecap="square"/>
<line x1="617.75" y1="202.75" x2="617.75" y2="260.2" stroke="#333333" stroke-width="1.5" stroke-linecap="square"/>
<line x1="546.75" y1="202.75" x2="546.75" y2="259.25" stroke="#333333" stroke-width="1.5" stroke-linecap="square"/>
<line x1="460.75" y1="202.75" x2="460.75" y2="259.25" stroke="#333333" stroke-width="1.5" stroke-linecap="square"/>
<line x1="646.75" y1="1.75" x2="646.75" y2="72.25" stroke="#333333" stroke-width="1.5" stroke-linecap="square"/>
<line x1="632.75" y1="317.75" x2="632.75" y2="402.25" stroke="#333333" stroke-width="1.5" stroke-linecap="square"/>
<line x1="474.75" y1="317.75" x2="474.75" y2="416.25" stroke="#333333" stroke-width="1.5" stroke-linecap="square"/>
<line x1="345.75" y1="245.75" x2="345.75" y2="416.25" stroke="#333333" stroke-width="1.5" stroke-linecap="square"/>
<line x1="302.75" y1="296.75" x2="302.75" y2="416.25" stroke="#333333" stroke-width="1.5" stroke-linecap="square"/>
<line x1="216.75" y1="274.75" x2="216.75" y2="417.25" stroke="#333333" stroke-width="1.5" stroke-linecap="square"/>
<line x1="157.25" y1="274.75" x2="1.75" y2="274.75" stroke="#333333" stroke-width="1.5" stroke-linecap="square"/>
<line x1="157.25" y1="202.75" x2="115.75" y2="202.75" stroke="#333333" stroke-width="1.5" stroke-linecap="square"/>
<line x1="114.25" y1="202.75" x2="72.75" y2="202.75" stroke="#333333" stroke-width="1.5" stroke-linecap="square"/>
<line x1="43.25" y1="202.75" x2="1.75" y2="202.75" stroke="#333333" stroke-width="1.5" stroke-linecap="square"/>
<line x1="702.25" y1="417.75" x2="1.75" y2="417.75" stroke="#333333" stroke-width="1.5" stroke-linecap="square"/>
<line x1="302.7" y1="274.75" x2="201.75" y2="274.75" stroke="#333333" stroke-width="1.5" stroke-linecap="square"/>
<line x1="301.25" y1="260.75" x2="201.75" y2="260.75" stroke="#333333" stroke-width="1.5" stroke-linecap="square"/>
<line x1="329.25" y1="202.75" x2="201.75" y2="202.75" stroke="#333333" stroke-width="1.5" stroke-linecap="square"/>
<line x1="631.25" y1="317.75" x2="617.75" y2="317.75" stroke="#333333" stroke-width="1.5" stroke-linecap="square"/>
<line x1="215.25" y1="274.75" x2="201.75" y2="274.75" stroke="#333333" stroke-width="1.5" stroke-linecap="square"/>
<line x1="201.75" y1="260.75" x2="201.75" y2="273.25" stroke="#333333" stroke-width="1.5" stroke-linecap="square"/>
<line x1="302.75" y1="260.75" x2="302.75" y2="273.25" stroke="#333333" stroke-width="1.5" stroke-linecap="square"/>
<line x1="201.75" y1="288.75" x2="201.75" y2="302.25" stroke="#333333" stroke-width="1.5" stroke-linecap="square"/>
<line x1="201.75" y1="317.75" x2="201.75" y2="330.25" stroke="#333333" stroke-width="1.5" stroke-linecap="square"/>
<line x1="201.75" y1="346.75" x2="201.75" y2="359.25" stroke="#333333" stroke-width="1.5" stroke-linecap="square"/>
<line x1="201.75" y1="374.75" x2="201.75" y2="402.25" stroke="#333333" stroke-width="1.5" stroke-linecap="square"/>
<line x1="215.25" y1="303.75" x2="201.75" y2="303.75" stroke="#333333" stroke-width="1.5" stroke-linecap="square"/>
<line x1="215.25" y1="331.75" x2="201.75" y2="331.75" stroke="#333333" stroke-width="1.5" stroke-linecap="square"/>
<line x1="215.25" y1="360.75" x2="201.75" y2="360.75" stroke="#333333" stroke-width="1.5" stroke-linecap="square"/>
<line x1="215.25" y1="389.75" x2="201.75" y2="389.75" stroke="#333333" stroke-width="1.5" stroke-linecap="square"/>
<line x1="645.25" y1="202.75" x2="388.75" y2="202.75" stroke="#333333" stroke-width="1.5" stroke-linecap="square"/>
<line x1="645.25" y1="102.75" x2="474.75" y2="102.75" stroke="#333333" stroke-width="1.5" stroke-linecap="square"/>
<line x1="531.451" y1="260.335" x2="460.7" y2="260.358" stroke="#333333" stroke-width="1.5" stroke-linecap="square"/>
<line x1="602.194" y1="260.335" x2="546.75" y2="260.353" stroke="#333333" stroke-width="1.5" stroke-linecap="square"/>
<line x1="702.25" y1="317.75" x2="646.75" y2="317.75" stroke="#333333" stroke-width="1.5" stroke-linecap="square"/>
<line x1="702.25" y1="374.75" x2="632.75" y2="374.75" stroke="#333333" stroke-width="1.5" stroke-linecap="square"/>
<line x1="702.25" y1="1.75" x2="474.75" y2="1.75" stroke="#333333" stroke-width="1.5" stroke-linecap="square"/>
<line x1="158.75" y1="202.75" x2="158.75" y2="330.25" stroke="#333333" stroke-width="1.5" stroke-linecap="square"/>
<line x1="158.75" y1="374.75" x2="158.75" y2="417.25" stroke="#333333" stroke-width="1.5" stroke-linecap="square"/>
<line x1="58.75" y1="202.75" x2="58.75" y2="273.25" stroke="#333333" stroke-width="1.5" stroke-linecap="square"/>
<line x1="115.75" y1="202.75" x2="115.75" y2="273.25" stroke="#333333" stroke-width="1.5" stroke-linecap="square"/>
<path d="M603 317H475" stroke="#333333" stroke-width="1.5" stroke-linecap="square"/>
</svg>
