<svg version="1.1" xmlns="http://www.w3.org/2000/svg" xmlns:xlink="http://www.w3.org/1999/xlink" width="24px" height="24px" viewBox="0 0 24 24" fill="#333333">
<g>
	<path d="M5.261,4.506V0.808H3.273c-1.516,0-2.749,1.233-2.749,2.75v16.886c0,1.516,1.233,2.749,2.749,2.749h20.203
		V4.506H5.261z M2.324,3.558c0-0.523,0.426-0.949,0.949-0.949h0.188v15.085H3.273c-0.335,0-0.652,0.069-0.949,0.179V3.558z
		 M21.676,21.392H3.273c-0.523,0-0.949-0.425-0.949-0.948s0.426-0.949,0.949-0.949h1.988V6.307h16.415V21.392z"/>
	<path d="M20.399,13.495l-7.374-5.967l-7.34,5.923l0.942,1.168l1.091-0.881v6.187h10.646v-6.146l1.091,0.883
		L20.399,13.495z M16.865,18.425H9.219v-5.897l3.806-3.071l3.841,3.108V18.425z"/>
</g>
</svg>
