<svg version="1.1" xmlns="http://www.w3.org/2000/svg" xmlns:xlink="http://www.w3.org/1999/xlink" width="24px" height="24px" viewBox="0 0 24 24" fill="#777777">
<path d="M22.114,6.645C19.438,1.95,13.508,1.29,8.074,4.238C2.639,7.187-1.407,14.643,2.437,17.32
	c3.785,2.136,9.545-4.067,10.872,2.969C14.742,25.267,26.472,14.286,22.114,6.645z M5.195,15.552c-1.354,0-2.453-1.1-2.453-2.453
	s1.1-2.453,2.453-2.453s2.453,1.1,2.453,2.453S6.549,15.552,5.195,15.552z M8.93,10.646c-1.139,0-2.063-0.924-2.063-2.063
	S7.791,6.521,8.93,6.521s2.063,0.924,2.063,2.063S10.068,10.646,8.93,10.646z M13.481,7.805c-0.967,0-1.75-0.783-1.75-1.75
	s0.783-1.75,1.75-1.75s1.75,0.783,1.75,1.75S14.448,7.805,13.481,7.805z M17.882,7.34c-0.709,0-1.284-0.575-1.284-1.285
	c0-0.709,0.575-1.284,1.284-1.284c0.71,0,1.285,0.575,1.285,1.284C19.167,6.765,18.592,7.34,17.882,7.34z M20.415,9.197
	c-0.513,0-0.929-0.416-0.929-0.929s0.416-0.929,0.929-0.929s0.929,0.416,0.929,0.929S20.928,9.197,20.415,9.197z"/>
</svg>
